<mxfile host="app.diagrams.net" modified="2024-07-11T09:30:07.570Z" agent="Mozilla/5.0 (Macintosh; Intel Mac OS X 10_15_7) AppleWebKit/537.36 (KHTML, like Gecko) Chrome/126.0.0.0 Safari/537.36" etag="zO9WQ0NvJY5GNAzZwGHv" version="24.6.4" type="github">
  <diagram name="Page-1" id="Zk6NGvGGkT8VuNml7Tr_">
    <mxGraphModel dx="1306" dy="835" grid="1" gridSize="10" guides="1" tooltips="1" connect="1" arrows="1" fold="1" page="1" pageScale="1" pageWidth="827" pageHeight="1169" math="0" shadow="0">
      <root>
        <mxCell id="0" />
        <mxCell id="1" parent="0" />
        <mxCell id="Gxr0kBthH2KKnGUIWUWp-1" value="" style="rounded=0;whiteSpace=wrap;html=1;" vertex="1" parent="1">
          <mxGeometry x="120" y="280" width="400" height="270" as="geometry" />
        </mxCell>
        <mxCell id="Gxr0kBthH2KKnGUIWUWp-2" value="5628" style="text;html=1;align=center;verticalAlign=middle;whiteSpace=wrap;rounded=0;" vertex="1" parent="1">
          <mxGeometry x="290" y="250" width="60" height="30" as="geometry" />
        </mxCell>
        <mxCell id="Gxr0kBthH2KKnGUIWUWp-3" value="门863" style="text;html=1;align=center;verticalAlign=middle;whiteSpace=wrap;rounded=0;" vertex="1" parent="1">
          <mxGeometry x="460" y="550" width="60" height="30" as="geometry" />
        </mxCell>
        <mxCell id="Gxr0kBthH2KKnGUIWUWp-4" value="" style="shape=or;whiteSpace=wrap;html=1;direction=north;fillColor=#f8cecc;strokeColor=#b85450;" vertex="1" parent="1">
          <mxGeometry x="370" y="512" width="76" height="38" as="geometry" />
        </mxCell>
        <mxCell id="Gxr0kBthH2KKnGUIWUWp-5" value="1000" style="text;html=1;align=center;verticalAlign=middle;whiteSpace=wrap;rounded=0;" vertex="1" parent="1">
          <mxGeometry x="370" y="550" width="70" height="30" as="geometry" />
        </mxCell>
        <mxCell id="Gxr0kBthH2KKnGUIWUWp-6" value="3518" style="text;html=1;align=center;verticalAlign=middle;whiteSpace=wrap;rounded=0;" vertex="1" parent="1">
          <mxGeometry x="210" y="550" width="60" height="30" as="geometry" />
        </mxCell>
        <mxCell id="Gxr0kBthH2KKnGUIWUWp-7" value="" style="rounded=0;whiteSpace=wrap;html=1;fillColor=#f8cecc;strokeColor=#b85450;aspect=fixed;" vertex="1" parent="1">
          <mxGeometry x="460" y="545" width="60" height="10" as="geometry" />
        </mxCell>
        <mxCell id="Gxr0kBthH2KKnGUIWUWp-8" value="4009" style="text;html=1;align=center;verticalAlign=middle;whiteSpace=wrap;rounded=0;" vertex="1" parent="1">
          <mxGeometry x="520" y="406" width="60" height="30" as="geometry" />
        </mxCell>
        <mxCell id="Gxr0kBthH2KKnGUIWUWp-18" value="" style="rounded=0;whiteSpace=wrap;html=1;" vertex="1" parent="1">
          <mxGeometry x="120" y="760" width="450" height="320" as="geometry" />
        </mxCell>
        <mxCell id="Gxr0kBthH2KKnGUIWUWp-19" value="5628" style="text;html=1;align=center;verticalAlign=middle;whiteSpace=wrap;rounded=0;" vertex="1" parent="1">
          <mxGeometry x="290" y="730" width="60" height="30" as="geometry" />
        </mxCell>
        <mxCell id="Gxr0kBthH2KKnGUIWUWp-20" value="门863" style="text;html=1;align=center;verticalAlign=middle;whiteSpace=wrap;rounded=0;" vertex="1" parent="1">
          <mxGeometry x="507" y="1080" width="60" height="30" as="geometry" />
        </mxCell>
        <mxCell id="Gxr0kBthH2KKnGUIWUWp-21" value="" style="shape=or;whiteSpace=wrap;html=1;direction=north;fillColor=#f8cecc;strokeColor=#b85450;" vertex="1" parent="1">
          <mxGeometry x="402" y="1042" width="80" height="38" as="geometry" />
        </mxCell>
        <mxCell id="Gxr0kBthH2KKnGUIWUWp-22" value="1000" style="text;html=1;align=center;verticalAlign=middle;whiteSpace=wrap;rounded=0;" vertex="1" parent="1">
          <mxGeometry x="407" y="1080" width="70" height="30" as="geometry" />
        </mxCell>
        <mxCell id="Gxr0kBthH2KKnGUIWUWp-23" value="3518" style="text;html=1;align=center;verticalAlign=middle;whiteSpace=wrap;rounded=0;" vertex="1" parent="1">
          <mxGeometry x="200" y="1080" width="60" height="30" as="geometry" />
        </mxCell>
        <mxCell id="Gxr0kBthH2KKnGUIWUWp-24" value="" style="rounded=0;whiteSpace=wrap;html=1;fillColor=#f8cecc;strokeColor=#b85450;aspect=fixed;" vertex="1" parent="1">
          <mxGeometry x="501" y="1068.33" width="69" height="11.5" as="geometry" />
        </mxCell>
        <mxCell id="Gxr0kBthH2KKnGUIWUWp-25" value="4009" style="text;html=1;align=center;verticalAlign=middle;whiteSpace=wrap;rounded=0;" vertex="1" parent="1">
          <mxGeometry x="565" y="900" width="60" height="30" as="geometry" />
        </mxCell>
        <mxCell id="Gxr0kBthH2KKnGUIWUWp-26" style="edgeStyle=orthogonalEdgeStyle;rounded=0;orthogonalLoop=1;jettySize=auto;html=1;exitX=0.5;exitY=1;exitDx=0;exitDy=0;" edge="1" parent="1" source="Gxr0kBthH2KKnGUIWUWp-22" target="Gxr0kBthH2KKnGUIWUWp-22">
          <mxGeometry relative="1" as="geometry" />
        </mxCell>
        <mxCell id="Gxr0kBthH2KKnGUIWUWp-28" value="1.5x0.8" style="rounded=0;whiteSpace=wrap;html=1;" vertex="1" parent="1">
          <mxGeometry x="414" y="880" width="64" height="120" as="geometry" />
        </mxCell>
        <mxCell id="Gxr0kBthH2KKnGUIWUWp-31" value="2.5x0.9" style="rounded=0;whiteSpace=wrap;html=1;" vertex="1" parent="1">
          <mxGeometry x="342" y="842" width="72" height="200" as="geometry" />
        </mxCell>
        <mxCell id="Gxr0kBthH2KKnGUIWUWp-32" value="" style="rounded=0;whiteSpace=wrap;html=1;" vertex="1" parent="1">
          <mxGeometry x="640" y="630" width="64" height="64" as="geometry" />
        </mxCell>
      </root>
    </mxGraphModel>
  </diagram>
</mxfile>
